<svg width="335" height="121" viewBox="0 0 335 121" fill="none" xmlns="http://www.w3.org/2000/svg">
<path d="M81.3084 57.4034C79.908 51.3144 73.6318 46.8387 67.1482 46.1621C62.7393 45.6938 57.4487 49.4408 64.3991 50.1694C65.1253 50.2735 65.7996 50.4297 66.3702 50.6378C69.5342 51.9389 70.8828 55.4778 70.9346 59.1729C70.9346 59.277 70.9346 59.329 70.9346 59.4331V59.4851C70.8309 66.0946 66.5776 73.2245 60.8202 69.9978C58.3305 68.5927 57.1375 66.4069 56.5669 63.9608V63.9088C56.5151 63.7006 56.4632 63.4925 56.4632 63.2843C55.9964 60.7342 56.1001 58.0279 56.1001 55.634C56.1001 55.1135 56.1001 54.5931 56.1001 54.0727C56.1001 46.0581 56.1001 38.0434 56.1001 30.0288C56.3076 30.0288 56.5151 30.0288 56.7225 30.0288C65.2809 30.0288 77.2627 30.1329 80.3229 19.7763C86.9622 -2.75829 45.8819 -6.92173 45.8819 17.2262C45.8819 20.0886 45.8819 22.951 45.8819 25.8133C42.5623 25.8133 39.2945 25.8133 35.9749 25.8133C35.9749 17.3824 33.952 5.51654 26.7941 2.28988C20.881 -0.416358 16.4203 -1.09375e-05 11.4927 1.82149C9.31424 2.5501 7.29134 3.643 5.5278 5.20429C4.59415 5.98493 3.71238 6.81762 2.98621 7.75439C0.029679 11.3974 -0.540881 15.1965 0.44463 18.6314C1.84509 24.7204 8.12124 29.2482 14.6049 29.9247C19.0137 30.3931 24.3044 26.646 17.3539 25.9174C16.6278 25.8654 16.0053 25.6572 15.3829 25.449C12.2708 24.2 10.9222 20.7651 10.8184 17.1221C10.7147 10.3565 15.0198 2.75827 20.9329 6.08902C23.3707 7.49418 24.6156 9.67999 25.1862 12.126V12.1781C25.238 12.3862 25.2899 12.5944 25.2899 12.8026C25.7567 15.3527 25.653 18.0589 25.653 20.5049C25.653 21.0254 25.653 21.5458 25.653 22.0662C25.653 30.0808 25.653 38.0955 25.653 46.1101C25.4455 46.1101 25.238 46.1101 25.0306 46.1101C16.4722 46.1101 4.49042 46.006 1.43014 56.3626C-5.20909 78.8972 35.8712 83.0606 35.8712 58.9127C35.8712 56.0503 35.8712 53.188 35.8712 50.3256C39.1908 50.3256 42.4585 50.3256 45.7782 50.3256C45.7782 58.7566 44.637 70.5183 54.8552 73.849C54.9071 73.849 54.9071 73.849 54.959 73.9011C59.7828 76.1909 65.3847 76.1909 70.2603 74.3694C72.4388 73.6408 74.4617 72.5479 76.1734 70.9866C77.1071 70.206 77.9888 69.3733 78.715 68.4365C81.7753 64.6894 82.294 60.8383 81.3084 57.4034ZM66.5258 6.24515C75.4991 11.6576 69.8454 25.8133 60.509 25.8133C59.0566 25.8133 57.5524 25.8133 56.1001 25.8133C56.1001 23.8877 56.1001 21.9101 56.1001 19.9845C56.0482 14.7282 57.3968 0.728591 66.5258 6.24515ZM35.8712 29.9768C39.1908 29.9768 42.4585 29.9768 45.7782 29.9768C45.7782 35.3372 45.7782 40.6976 45.7782 46.0581C42.4585 46.0581 39.1908 46.0581 35.8712 46.0581C35.8712 40.6976 35.8712 35.3372 35.8712 29.9768ZM15.1236 69.7897C6.15022 64.3772 11.8039 50.2215 21.1404 50.2215C22.5927 50.2215 24.0969 50.2215 25.5492 50.2215C25.5492 52.1471 25.5492 54.1247 25.5492 56.0503C25.6011 61.3067 24.2525 75.3062 15.1236 69.7897Z" fill="#00CCCC"/>
<path d="M116.943 30.185C116.943 31.434 117.928 32.4228 119.173 32.4228C120.418 32.4228 121.404 31.434 121.404 30.185V4.68388H125.968C127.213 4.68388 128.198 3.69506 128.198 2.49807C128.198 1.24904 127.213 0.260223 125.968 0.260223H112.378C111.133 0.260223 110.148 1.24904 110.148 2.49807C110.148 3.74711 111.133 4.68388 112.378 4.68388H116.943V30.185Z" fill="#043F48"/>
<path d="M158.334 30.1849C158.334 31.434 159.32 32.4228 160.565 32.4228C161.809 32.4228 162.795 31.434 162.795 30.1849V2.23785C162.795 0.988819 161.809 0 160.565 0C159.32 0 158.334 0.988819 158.334 2.23785V12.8026H140.18V2.23785C140.18 0.988819 139.194 0 137.95 0C136.705 0 135.719 0.988819 135.719 2.23785V30.1849C135.719 31.434 136.705 32.4228 137.95 32.4228C139.194 32.4228 140.18 31.434 140.18 30.1849V17.2783H158.334V30.1849Z" fill="#043F48"/>
<path d="M175.088 32.2146H188.677C189.922 32.2146 190.908 31.2258 190.908 29.9768C190.908 28.7278 189.922 27.791 188.677 27.791H177.318V17.5385H185.876C187.121 17.5385 188.107 16.5497 188.107 15.3007C188.107 14.0516 187.121 13.0628 185.876 13.0628H177.318V4.73594H188.677C189.922 4.73594 190.908 3.74712 190.908 2.55013C190.908 1.3011 189.922 0.312286 188.677 0.312286H175.088C173.843 0.312286 172.857 1.3011 172.857 2.55013V30.0288C172.805 31.1738 173.843 32.2146 175.088 32.2146Z" fill="#043F48"/>
<path d="M137.586 44.1845C136.342 44.1845 135.356 45.1733 135.356 46.4224V56.9871H117.202V46.4224C117.202 45.1733 116.216 44.1845 114.972 44.1845C113.727 44.1845 112.741 45.1733 112.741 46.4224V74.3695C112.741 75.6185 113.727 76.6073 114.972 76.6073C116.216 76.6073 117.202 75.6185 117.202 74.3695V61.4628H135.356V74.3695C135.356 75.6185 136.342 76.6073 137.586 76.6073C138.831 76.6073 139.817 75.6185 139.817 74.3695V46.4224C139.817 45.1733 138.831 44.1845 137.586 44.1845Z" fill="#043F48"/>
<path d="M163.625 76.8155C172.65 76.8155 180.016 69.4254 180.016 60.3699C180.016 51.3144 172.65 43.9243 163.625 43.9243C154.6 43.9243 147.234 51.3144 147.234 60.3699C147.234 69.4774 154.6 76.8155 163.625 76.8155ZM163.625 48.4C170.316 48.4 175.555 53.6563 175.555 60.4219C175.555 67.1355 170.316 72.4439 163.625 72.4439C156.934 72.4439 151.695 67.1875 151.695 60.4219C151.695 53.6563 156.934 48.4 163.625 48.4Z" fill="#043F48"/>
<path d="M201.334 46.6826C201.334 45.4335 200.348 44.4447 199.103 44.4447H185.514C184.269 44.4447 183.283 45.4335 183.283 46.6826C183.283 47.9316 184.269 48.8684 185.514 48.8684H190.078V74.3694C190.078 75.6185 191.064 76.6073 192.308 76.6073C193.553 76.6073 194.539 75.6185 194.539 74.3694V48.8684H199.103C200.348 48.8684 201.334 47.8795 201.334 46.6826Z" fill="#043F48"/>
<path d="M211.033 76.3471H224.623C225.868 76.3471 226.853 75.3583 226.853 74.1092C226.853 72.8602 225.868 71.9234 224.623 71.9234H213.263V61.671H221.822C223.067 61.671 224.052 60.6821 224.052 59.4331C224.052 58.1841 223.067 57.1953 221.822 57.1953H213.263V48.8163H224.623C225.868 48.8163 226.853 47.8275 226.853 46.6305C226.853 45.3815 225.868 44.3927 224.623 44.3927H211.033C209.788 44.3927 208.803 45.3815 208.803 46.6305V74.1092C208.803 75.3583 209.84 76.3471 211.033 76.3471Z" fill="#043F48"/>
<path d="M237.279 76.3471H250.869C252.114 76.3471 253.099 75.3583 253.099 74.1092C253.099 72.8602 252.114 71.9234 250.869 71.9234H239.51V46.3703C239.51 45.1213 238.524 44.1845 237.279 44.1845C236.034 44.1845 235.049 45.1733 235.049 46.4224V74.1092C235.049 75.3583 236.034 76.3471 237.279 76.3471Z" fill="#043F48"/>
<path d="M288.526 107.469C292.156 105.96 294.542 102.421 294.542 98.4133C294.542 93.0009 290.185 88.5772 284.791 88.5772H276.336C275.091 88.5772 274.106 89.566 274.106 90.8151V118.502C274.106 119.751 275.091 120.74 276.336 120.74C277.581 120.74 278.567 119.751 278.567 118.554V108.302H283.339L292.883 119.959C293.298 120.48 293.92 120.74 294.542 120.74C295.061 120.74 295.58 120.532 295.995 120.219C296.462 119.855 296.721 119.283 296.825 118.71C296.876 118.138 296.721 117.513 296.306 117.097L288.526 107.469ZM290.082 98.4654C290.082 101.432 287.696 103.878 284.739 103.878H278.67V93.0529H284.739C287.696 93.0529 290.082 95.4469 290.082 98.4654Z" fill="#043F48"/>
<path d="M266.637 57.7677C263.784 56.1544 261.346 54.8013 261.346 52.1991C261.346 49.7531 262.85 48.4 265.599 48.4C267.155 48.4 268.867 49.0245 270.008 50.0133C270.89 50.794 272.342 50.7419 273.224 49.7531C274.054 48.6082 273.691 47.3071 272.965 46.6305C271.149 44.8611 268.711 43.9763 265.755 43.9763C260.464 43.9763 256.885 47.2551 256.885 52.1991C256.885 57.4555 260.879 59.6933 264.354 61.723C267.415 63.4404 270.008 64.9497 270.008 67.9682C270.008 70.6224 268.089 72.4439 265.236 72.4439C264.303 72.4439 261.968 72.2877 260.361 70.5703C259.531 69.6856 257.975 69.7376 257.093 70.6744C256.107 71.8194 256.574 73.0684 257.3 73.9011C259.219 75.8787 261.968 76.9196 265.236 76.9196C270.631 76.9196 274.521 73.1725 274.521 68.0202C274.469 62.1914 270.319 59.8495 266.637 57.7677Z" fill="#043F48"/>
<path d="M137.586 88.369C136.342 88.369 135.356 89.3579 135.356 90.6069V112.309L117.098 89.4099C116.372 88.6813 115.905 88.317 114.972 88.317C113.727 88.317 112.741 89.3058 112.741 90.5549V118.502C112.741 119.751 113.727 120.74 114.972 120.74C116.216 120.74 117.202 119.751 117.202 118.502V96.8L135.46 119.699C136.186 120.428 136.705 120.792 137.586 120.792C138.831 120.792 139.817 119.803 139.817 118.554V90.6069C139.817 89.3579 138.831 88.369 137.586 88.369Z" fill="#043F48"/>
<path d="M165.7 93.0529C166.945 93.0529 167.93 92.0641 167.93 90.8671C167.93 89.6181 166.945 88.6292 165.7 88.6292H152.11C150.865 88.6292 149.88 89.6181 149.88 90.8671V118.346C149.88 119.595 150.865 120.584 152.11 120.584H165.7C166.945 120.584 167.93 119.595 167.93 118.346C167.93 117.097 166.945 116.16 165.7 116.16H154.341V105.908H162.899C164.144 105.908 165.129 104.919 165.129 103.67C165.129 102.421 164.144 101.432 162.899 101.432H154.341V93.1049H165.7V93.0529Z" fill="#043F48"/>
<path d="M189.352 88.5772H175.762C174.517 88.5772 173.532 89.566 173.532 90.8151C173.532 92.0641 174.517 93.0009 175.762 93.0009H180.327V118.502C180.327 119.751 181.312 120.74 182.557 120.74C183.802 120.74 184.787 119.751 184.787 118.502V93.0009H189.352C190.597 93.0009 191.582 92.012 191.582 90.8151C191.582 89.6181 190.597 88.5772 189.352 88.5772Z" fill="#043F48"/>
<path d="M251.75 88.1088C242.725 88.1088 235.359 95.4989 235.359 104.554C235.359 113.61 242.725 121 251.75 121C260.775 121 268.141 113.61 268.141 104.554C268.141 95.4989 260.827 88.1088 251.75 88.1088ZM251.75 116.576C245.059 116.576 239.82 111.32 239.82 104.554C239.82 97.8409 245.059 92.5325 251.75 92.5325C258.441 92.5325 263.68 97.7888 263.68 104.554C263.68 111.32 258.441 116.576 251.75 116.576Z" fill="#043F48"/>
<path d="M332.718 116.316C327.894 116.316 324.159 114.391 320.217 109.915L315.082 104.138L330.799 92.1161C331.317 91.6998 331.68 91.0753 331.732 90.4507C331.784 89.9303 331.628 89.4619 331.317 89.0976C330.954 88.6292 330.384 88.369 329.761 88.369C329.139 88.369 328.464 88.6292 328.05 88.9935L308.287 104.19V90.6069C308.287 89.3578 307.302 88.369 306.057 88.369C304.812 88.369 303.827 89.3578 303.827 90.6069V118.554C303.827 119.803 304.812 120.792 306.057 120.792C307.302 120.792 308.287 119.803 308.287 118.554V109.655L311.451 107.104L316.742 113.089C319.958 116.68 324.626 120.792 332.77 120.792C334.014 120.792 335 119.803 335 118.554C334.948 117.305 333.963 116.316 332.718 116.316Z" fill="#043F48"/>
<path d="M230.38 88.5252C229.187 88.317 228.098 89.0976 227.839 90.2426L223.534 112.049L216.064 96.9561C216.013 96.8521 215.961 96.8521 215.909 96.748C215.805 96.5918 215.753 96.4878 215.598 96.3837C215.494 96.2796 215.442 96.2275 215.338 96.1755C215.235 96.1235 215.183 96.0194 215.079 95.9673C215.027 95.9153 214.975 95.9673 214.871 95.9153C214.768 95.8632 214.664 95.8632 214.56 95.8112C214.405 95.7592 214.249 95.7592 214.093 95.7592C213.938 95.7592 213.782 95.8112 213.575 95.8112C213.471 95.8112 213.419 95.8632 213.315 95.8632C213.263 95.8632 213.16 95.8632 213.108 95.9153C213.004 95.9673 212.9 96.0714 212.797 96.1235C212.745 96.1755 212.641 96.2275 212.589 96.2796C212.485 96.3837 212.382 96.5398 212.278 96.6959C212.226 96.748 212.174 96.8 212.122 96.8521L204.653 111.945L200.348 90.1385C200.141 88.9936 199.051 88.2129 197.807 88.4211C196.614 88.6813 195.887 89.8262 196.095 90.9712L201.593 119.022C201.593 119.074 201.645 119.126 201.645 119.179C201.697 119.283 201.697 119.387 201.749 119.491C201.8 119.647 201.904 119.803 202.008 119.907C202.06 120.011 202.112 120.063 202.215 120.115C202.319 120.219 202.475 120.323 202.63 120.428C202.682 120.48 202.734 120.532 202.786 120.532C202.838 120.532 202.838 120.532 202.89 120.532C203.149 120.636 203.46 120.74 203.771 120.74C203.927 120.74 204.083 120.74 204.186 120.688H204.238C204.498 120.636 204.757 120.532 204.964 120.375L205.016 120.323C205.224 120.167 205.379 120.011 205.483 119.855C205.535 119.803 205.535 119.751 205.587 119.699C205.639 119.647 205.691 119.595 205.691 119.543L214.042 102.681L222.392 119.543C222.444 119.595 222.444 119.647 222.496 119.699C222.496 119.751 222.496 119.751 222.548 119.803C222.548 119.855 222.6 119.855 222.6 119.855C222.756 120.063 222.911 120.219 223.067 120.323L223.119 120.375C223.326 120.532 223.585 120.636 223.845 120.688H223.897C224.052 120.74 224.156 120.74 224.363 120.74C224.675 120.74 224.934 120.636 225.245 120.532C225.297 120.532 225.297 120.532 225.349 120.532C225.401 120.48 225.453 120.428 225.505 120.428C225.66 120.323 225.764 120.271 225.868 120.167C225.971 120.115 226.023 120.011 226.075 119.907C226.179 119.803 226.231 119.647 226.283 119.491C226.334 119.439 226.386 119.387 226.386 119.335C226.386 119.283 226.386 119.231 226.386 119.231C226.386 119.179 226.438 119.126 226.438 119.074L231.936 91.0232C232.299 89.9303 231.521 88.7854 230.38 88.5252Z" fill="#043F48"/>
</svg>
